<?xml version="1.0" encoding="UTF-8"?>
<svg xmlns="http://www.w3.org/2000/svg" xmlns:xlink="http://www.w3.org/1999/xlink" width="2250" height="2250" viewBox="0 0 2250 2250">
<rect x="-225" y="-225" width="2700" height="2700" fill="rgb(94.921875%, 94.921875%, 94.921875%)" fill-opacity="1"/>
<path fill-rule="nonzero" fill="rgb(47.068787%, 26.660156%, 12.939453%)" fill-opacity="1" d="M 1010.980469 589.730469 C 975.355469 589.730469 946.425781 655.328125 946.425781 706.230469 C 946.425781 747.78125 965.8125 766.441406 992.265625 771.988281 L 989.8125 809.589844 C 1002.980469 802.730469 1016.738281 796.859375 1030.980469 792.039062 L 1029.679688 771.988281 C 1056.128906 766.441406 1075.488281 747.78125 1075.488281 706.230469 C 1075.488281 655.328125 1046.609375 589.730469 1010.980469 589.730469 Z M 972.449219 1076.710938 L 968.171875 1142.289062 C 967.511719 1152.5 1000.75 1160.75 1010.980469 1160.75 C 1021.21875 1160.75 1054.429688 1152.5 1053.769531 1142.289062 L 1049.5 1076.710938 Z M 972.449219 1076.710938 "/>
<path fill-rule="nonzero" fill="rgb(47.068787%, 26.660156%, 12.939453%)" fill-opacity="1" d="M 847.792969 485.929688 C 800.394531 484.429688 763.195312 564.261719 748.710938 600.238281 C 727.929688 626.988281 709.980469 656 695.207031 686.859375 C 704.25 631.039062 718.398438 513.691406 671.0625 540.25 C 615.417969 571.46875 674.039062 686.171875 685.769531 707.980469 C 672.515625 739.53125 662.5 772.75 656.28125 807.320312 C 645.335938 749.640625 619.640625 642.378906 585.253906 681.75 C 545.105469 727.710938 628.605469 810.128906 652.367188 832.109375 C 649.894531 851.769531 648.613281 871.808594 648.613281 892.140625 C 648.613281 906.828125 649.5 921.300781 650.804688 935.648438 C 622.789062 884.03125 565.738281 789.890625 544.996094 837.820312 C 521.089844 893.070312 622.554688 945.441406 653.621094 960.089844 C 658.984375 997.609375 668.640625 1033.730469 682.222656 1067.898438 C 647.84375 1018.25 589.59375 944.269531 574.5625 990.820312 C 555.214844 1050.75 672.472656 1094.558594 698.207031 1103.460938 C 715.179688 1137.679688 736.125 1169.539062 760.46875 1198.480469 C 716.816406 1156.628906 647.441406 1098.289062 641.9375 1146.089844 C 634.1875 1213.429688 781.429688 1232.058594 792.175781 1233.339844 C 792.265625 1233.519531 793.402344 1235.96875 793.402344 1235.96875 C 793.402344 1235.96875 793.769531 1234.339844 793.769531 1234.25 C 812.09375 1252 831.738281 1268.417969 852.71875 1283.0625 C 854.164062 1284.210938 856.023438 1284.707031 857.847656 1284.4375 C 859.675781 1284.167969 861.308594 1283.152344 862.359375 1281.636719 C 863.410156 1280.117188 863.785156 1278.234375 863.398438 1276.429688 C 863.007812 1274.625 861.890625 1273.058594 860.308594 1272.109375 C 837.644531 1256.296875 816.472656 1238.511719 797.027344 1219 C 804.988281 1181.601562 822.738281 1075.359375 766.234375 1060.941406 C 718.335938 1048.710938 751.0625 1139.5 774.8125 1194.910156 C 749.972656 1166.191406 728.695312 1134.378906 711.453125 1100.148438 C 726.226562 1079.421875 798.070312 973.71875 746.992188 935.859375 C 699.585938 900.730469 702.714844 1039.519531 704.988281 1087.089844 C 686.859375 1048.070312 674.132812 1006.078125 667.464844 962.070312 C 693.421875 942.890625 785.605469 870.101562 750.71875 819.960938 C 719.503906 775.109375 680.871094 888.308594 664.859375 942.019531 C 663.101562 925.609375 662.019531 909.011719 662.019531 892.140625 C 662.019531 872.488281 663.265625 853.121094 665.640625 834.121094 C 693.527344 823.070312 804.679688 775.320312 783.285156 717.160156 C 764.164062 665.179688 697.058594 767.671875 668.664062 814.730469 C 674.886719 777.769531 685.480469 742.339844 699.902344 708.921875 C 730.8125 704.160156 847.84375 682.449219 840.125 621.460938 C 833.503906 569.171875 750.890625 645.640625 709.964844 687.171875 C 723.804688 659.191406 740.289062 632.75 759.269531 608.320312 C 799.976562 583.160156 915.765625 507.421875 860.070312 488.230469 C 855.917969 486.800781 851.824219 486.058594 847.789062 485.929688 Z M 1405.300781 485.929688 C 1401.269531 486.070312 1397.171875 486.800781 1393.019531 488.230469 C 1337.320312 507.421875 1453.109375 583.160156 1493.820312 608.320312 C 1512.800781 632.75 1529.28125 659.191406 1543.128906 687.171875 C 1502.199219 645.640625 1419.589844 569.171875 1412.960938 621.460938 C 1405.25 682.449219 1522.28125 704.160156 1553.191406 708.921875 C 1567.609375 742.339844 1578.199219 777.769531 1584.429688 814.71875 C 1556.03125 767.671875 1488.929688 665.179688 1469.808594 717.160156 C 1448.410156 775.320312 1559.558594 823.070312 1587.449219 834.121094 C 1589.820312 853.121094 1591.070312 872.488281 1591.070312 892.140625 C 1591.070312 909.011719 1589.980469 925.609375 1588.230469 942.019531 C 1572.21875 888.308594 1533.589844 775.109375 1502.371094 819.960938 C 1467.480469 870.101562 1559.671875 942.890625 1585.628906 962.070312 C 1578.960938 1006.070312 1566.230469 1048.070312 1548.101562 1087.089844 C 1550.378906 1039.519531 1553.5 900.730469 1506.101562 935.859375 C 1455.019531 973.71875 1526.859375 1079.421875 1541.640625 1100.148438 C 1524.390625 1134.378906 1503.121094 1166.191406 1478.28125 1194.910156 C 1502.03125 1139.5 1534.75 1048.710938 1486.859375 1060.941406 C 1430.351562 1075.359375 1448.101562 1181.601562 1456.058594 1219 C 1436.621094 1238.511719 1415.441406 1256.296875 1392.78125 1272.109375 C 1391.199219 1273.058594 1390.078125 1274.621094 1389.691406 1276.425781 C 1389.300781 1278.234375 1389.679688 1280.117188 1390.730469 1281.636719 C 1391.78125 1283.152344 1393.410156 1284.167969 1395.238281 1284.4375 C 1397.070312 1284.707031 1398.921875 1284.210938 1400.371094 1283.058594 C 1421.351562 1268.417969 1441 1252 1459.320312 1234.25 C 1459.320312 1234.339844 1459.691406 1235.96875 1459.691406 1235.96875 C 1459.691406 1235.96875 1460.808594 1233.519531 1460.910156 1233.339844 C 1471.660156 1232.058594 1618.898438 1213.429688 1611.148438 1146.089844 C 1605.648438 1098.289062 1536.269531 1156.628906 1492.621094 1198.480469 C 1516.960938 1169.539062 1537.910156 1137.679688 1554.878906 1103.460938 C 1580.621094 1094.558594 1697.878906 1050.75 1678.519531 990.820312 C 1663.488281 944.269531 1605.25 1018.25 1570.871094 1067.898438 C 1584.449219 1033.730469 1594.101562 997.609375 1599.46875 960.089844 C 1630.539062 945.441406 1732 893.070312 1708.089844 837.820312 C 1687.351562 789.890625 1630.300781 884.03125 1602.289062 935.648438 C 1603.589844 921.300781 1604.480469 906.828125 1604.480469 892.140625 C 1604.480469 871.808594 1603.191406 851.769531 1600.71875 832.109375 C 1624.480469 810.128906 1707.980469 727.710938 1667.839844 681.75 C 1633.441406 642.378906 1607.75 749.640625 1596.808594 807.320312 C 1590.589844 772.75 1580.570312 739.53125 1567.320312 707.980469 C 1579.058594 686.160156 1637.671875 571.46875 1582.03125 540.25 C 1534.691406 513.691406 1548.839844 631.039062 1557.878906 686.859375 C 1543.109375 656 1525.160156 626.988281 1504.378906 600.238281 C 1489.890625 564.261719 1452.691406 484.429688 1405.300781 485.929688 Z M 1405.300781 485.929688 "/>
<path fill-rule="nonzero" fill="rgb(47.068787%, 26.660156%, 12.939453%)" fill-opacity="1" d="M 1222.679688 589.320312 C 1222.410156 589.320312 1222.140625 589.339844 1221.871094 589.359375 C 1221.601562 589.390625 1221.328125 589.441406 1221.058594 589.5 C 1220.800781 589.550781 1220.539062 589.609375 1220.28125 589.679688 C 1220.019531 589.761719 1219.769531 589.859375 1219.519531 589.960938 C 1219.261719 590.070312 1219.011719 590.191406 1218.761719 590.328125 C 1218.53125 590.449219 1218.308594 590.589844 1218.089844 590.738281 C 1217.851562 590.890625 1217.621094 591.058594 1217.410156 591.230469 C 1217.210938 591.410156 1217.011719 591.589844 1216.828125 591.78125 C 1216.640625 591.980469 1216.449219 592.191406 1216.28125 592.410156 C 1216.121094 592.621094 1215.960938 592.828125 1215.820312 593.058594 C 1215.671875 593.289062 1215.539062 593.53125 1215.410156 593.789062 C 1215.308594 594.03125 1215.210938 594.269531 1215.128906 594.519531 C 1215.039062 594.769531 1214.96875 595.019531 1214.898438 595.269531 C 1214.828125 595.539062 1214.769531 595.808594 1214.71875 596.078125 C 1214.679688 596.351562 1214.640625 596.621094 1214.628906 596.890625 C 1214.609375 597.070312 1214.609375 597.25 1214.601562 597.441406 L 1214.601562 690.75 C 1214.601562 696.171875 1210.238281 700.53125 1204.820312 700.53125 C 1199.410156 700.53125 1195.050781 696.171875 1195.050781 690.75 L 1195.050781 598.011719 C 1195.050781 597.710938 1195.039062 597.421875 1195 597.121094 C 1194.960938 596.839844 1194.898438 596.550781 1194.820312 596.269531 C 1194.761719 595.980469 1194.679688 595.699219 1194.589844 595.429688 C 1194.519531 595.160156 1194.421875 594.890625 1194.320312 594.621094 C 1194.210938 594.359375 1194.089844 594.101562 1193.949219 593.839844 C 1193.808594 593.578125 1193.660156 593.328125 1193.488281 593.089844 C 1193.328125 592.851562 1193.160156 592.621094 1192.96875 592.410156 C 1192.78125 592.191406 1192.578125 591.980469 1192.371094 591.78125 C 1192.160156 591.570312 1191.949219 591.371094 1191.71875 591.179688 C 1191.5 591 1191.261719 590.839844 1191.019531 590.679688 C 1190.78125 590.53125 1190.539062 590.398438 1190.289062 590.269531 C 1190.019531 590.140625 1189.75 590.011719 1189.480469 589.910156 C 1189.210938 589.800781 1188.941406 589.710938 1188.671875 589.628906 C 1188.390625 589.558594 1188.101562 589.488281 1187.808594 589.441406 C 1187.519531 589.398438 1187.230469 589.371094 1186.941406 589.359375 C 1186.75 589.339844 1186.550781 589.328125 1186.339844 589.328125 C 1186.058594 589.328125 1185.769531 589.339844 1185.480469 589.371094 C 1185.179688 589.398438 1184.890625 589.449219 1184.601562 589.511719 C 1184.320312 589.570312 1184.039062 589.648438 1183.769531 589.738281 C 1183.488281 589.839844 1183.21875 589.941406 1182.960938 590.058594 C 1182.691406 590.171875 1182.429688 590.289062 1182.171875 590.429688 C 1181.921875 590.570312 1181.679688 590.71875 1181.441406 590.890625 C 1181.199219 591.050781 1180.960938 591.230469 1180.738281 591.410156 C 1180.519531 591.601562 1180.320312 591.800781 1180.121094 592.011719 C 1179.910156 592.21875 1179.71875 592.441406 1179.539062 592.660156 C 1179.359375 592.890625 1179.179688 593.121094 1179.019531 593.371094 C 1178.878906 593.601562 1178.738281 593.851562 1178.609375 594.101562 C 1178.480469 594.359375 1178.351562 594.628906 1178.238281 594.898438 C 1178.160156 595.171875 1178.078125 595.441406 1178.019531 595.710938 C 1177.941406 596 1177.878906 596.28125 1177.828125 596.570312 C 1177.789062 596.859375 1177.75 597.140625 1177.738281 597.429688 C 1177.71875 597.640625 1177.710938 597.859375 1177.710938 598.078125 L 1177.710938 718.640625 C 1177.710938 745.511719 1196.660156 767.789062 1221.960938 772.929688 L 1220.679688 792.558594 C 1234.960938 797.488281 1248.75 803.449219 1261.929688 810.429688 L 1259.480469 772.929688 C 1284.78125 767.789062 1303.699219 745.511719 1303.699219 718.640625 L 1303.699219 598.078125 C 1303.710938 597.78125 1303.699219 597.488281 1303.679688 597.191406 C 1303.628906 596.898438 1303.570312 596.621094 1303.488281 596.328125 C 1303.429688 596.050781 1303.359375 595.769531 1303.261719 595.5 C 1303.179688 595.21875 1303.089844 594.949219 1302.988281 594.691406 C 1302.878906 594.421875 1302.761719 594.160156 1302.621094 593.910156 C 1302.480469 593.648438 1302.328125 593.390625 1302.160156 593.148438 C 1301.988281 592.910156 1301.808594 592.671875 1301.609375 592.449219 C 1301.429688 592.238281 1301.238281 592.039062 1301.039062 591.851562 C 1300.828125 591.640625 1300.621094 591.429688 1300.390625 591.25 C 1300.160156 591.070312 1299.929688 590.898438 1299.679688 590.75 C 1299.441406 590.601562 1299.179688 590.460938 1298.929688 590.339844 C 1298.671875 590.199219 1298.410156 590.078125 1298.140625 589.96875 C 1297.871094 589.859375 1297.589844 589.769531 1297.308594 589.691406 C 1297.03125 589.621094 1296.738281 589.558594 1296.449219 589.511719 C 1296.160156 589.460938 1295.878906 589.441406 1295.589844 589.421875 C 1295.378906 589.398438 1295.171875 589.390625 1294.960938 589.390625 C 1294.679688 589.390625 1294.390625 589.410156 1294.109375 589.441406 C 1293.820312 589.46875 1293.53125 589.519531 1293.25 589.578125 C 1292.960938 589.640625 1292.691406 589.710938 1292.410156 589.808594 C 1292.128906 589.898438 1291.859375 590.011719 1291.578125 590.128906 C 1291.320312 590.238281 1291.070312 590.359375 1290.820312 590.5 C 1290.570312 590.640625 1290.308594 590.789062 1290.070312 590.960938 C 1289.820312 591.121094 1289.589844 591.300781 1289.359375 591.480469 C 1289.140625 591.679688 1288.929688 591.871094 1288.738281 592.089844 C 1288.539062 592.28125 1288.339844 592.5 1288.160156 592.710938 C 1287.980469 592.941406 1287.808594 593.191406 1287.640625 593.441406 C 1287.5 593.691406 1287.359375 593.941406 1287.230469 594.199219 C 1287.101562 594.449219 1286.96875 594.710938 1286.859375 594.980469 C 1286.769531 595.25 1286.699219 595.53125 1286.640625 595.808594 C 1286.558594 596.101562 1286.5 596.390625 1286.449219 596.679688 C 1286.410156 596.960938 1286.378906 597.25 1286.359375 597.53125 C 1286.339844 597.730469 1286.339844 597.941406 1286.328125 598.140625 L 1286.328125 690.878906 C 1286.328125 696.300781 1281.96875 700.660156 1276.558594 700.660156 C 1271.140625 700.660156 1266.78125 696.300781 1266.78125 690.878906 L 1266.78125 597.558594 C 1266.761719 593.070312 1263.128906 589.429688 1258.640625 589.421875 C 1258.449219 589.410156 1258.261719 589.410156 1258.070312 589.421875 L 1258.039062 589.28125 C 1256.941406 589.359375 1255.871094 589.660156 1254.890625 590.171875 C 1254.410156 590.421875 1253.949219 590.710938 1253.53125 591.058594 C 1253.46875 591.109375 1253.410156 591.179688 1253.351562 591.238281 C 1252.171875 592.230469 1251.289062 593.53125 1250.820312 594.988281 C 1250.808594 595.089844 1250.789062 595.179688 1250.78125 595.269531 C 1250.660156 595.710938 1250.589844 596.160156 1250.550781 596.621094 C 1250.53125 596.890625 1250.519531 597.160156 1250.519531 597.429688 L 1250.519531 690.75 C 1250.519531 696.160156 1246.160156 700.519531 1240.75 700.519531 C 1235.328125 700.519531 1230.96875 696.160156 1230.96875 690.75 L 1230.96875 597.429688 C 1230.96875 597.160156 1230.949219 596.890625 1230.929688 596.621094 C 1230.878906 596.351562 1230.820312 596.078125 1230.738281 595.820312 C 1230.691406 595.558594 1230.628906 595.289062 1230.558594 595.039062 C 1230.5 594.78125 1230.421875 594.53125 1230.328125 594.28125 C 1230.21875 594.03125 1230.101562 593.789062 1229.960938 593.550781 C 1229.839844 593.308594 1229.699219 593.070312 1229.550781 592.851562 C 1229.390625 592.621094 1229.210938 592.410156 1229.03125 592.191406 C 1228.859375 591.988281 1228.679688 591.78125 1228.480469 591.589844 C 1228.289062 591.410156 1228.089844 591.238281 1227.878906 591.070312 C 1227.660156 590.910156 1227.429688 590.75 1227.199219 590.609375 C 1226.96875 590.449219 1226.738281 590.320312 1226.488281 590.191406 C 1226.25 590.070312 1226 589.960938 1225.738281 589.871094 C 1225.488281 589.769531 1225.230469 589.671875 1224.980469 589.589844 C 1224.71875 589.519531 1224.460938 589.460938 1224.199219 589.410156 C 1223.929688 589.371094 1223.660156 589.339844 1223.390625 589.320312 C 1223.199219 589.308594 1223.011719 589.289062 1222.820312 589.289062 Z M 1266.191406 600.210938 C 1266.171875 600.289062 1266.140625 600.371094 1266.109375 600.441406 C 1266.070312 600.488281 1266.039062 600.539062 1266.011719 600.578125 C 1266.070312 600.480469 1266.140625 600.371094 1266.191406 600.261719 Z M 1202.128906 1076.710938 L 1197.859375 1142.289062 C 1197.191406 1152.5 1230.410156 1160.75 1240.640625 1160.75 C 1250.871094 1160.75 1284.121094 1152.5 1283.449219 1142.289062 L 1279.179688 1076.710938 Z M 1202.128906 1076.710938 "/>
<path fill-rule="nonzero" fill="rgb(47.068787%, 26.660156%, 12.939453%)" fill-opacity="1" d="M 1125 783.230469 C 966.589844 783.230469 838.171875 911.640625 838.164062 1070.050781 L 1411.839844 1070.050781 C 1411.828125 911.640625 1283.410156 783.230469 1125 783.230469 Z M 1125 783.230469 "/>
<path fill-rule="nonzero" fill="rgb(47.068787%, 26.660156%, 12.939453%)" fill-opacity="1" d="M 1155.320312 744.53125 C 1155.320312 761.269531 1141.738281 774.851562 1125 774.851562 C 1108.25 774.851562 1094.679688 761.269531 1094.679688 744.53125 C 1094.679688 727.78125 1108.25 714.199219 1125 714.199219 C 1133.039062 714.199219 1140.75 717.398438 1146.441406 723.089844 C 1152.128906 728.769531 1155.320312 736.480469 1155.320312 744.53125 Z M 1155.320312 744.53125 "/>
<path fill-rule="nonzero" fill="rgb(100%, 100%, 100%)" fill-opacity="1" d="M 1166.199219 804.378906 C 1274.320312 838.820312 1349.820312 936.601562 1355.789062 1049.910156 L 1393.210938 1049.910156 C 1393.148438 921.390625 1294.320312 814.5 1166.199219 804.378906 Z M 1166.199219 804.378906 "/>
<path fill-rule="nonzero" fill="rgb(100%, 100%, 100%)" fill-opacity="1" d="M 1132.859375 717.289062 C 1139.511719 724.121094 1144.96875 732.800781 1145.441406 742.511719 C 1145.941406 753.761719 1140.5 762.679688 1131.351562 771.710938 C 1144.480469 766.300781 1152.589844 755.011719 1152.039062 742.890625 C 1151.539062 732.140625 1144.25 722.421875 1132.859375 717.289062 Z M 1132.859375 717.289062 "/>
<path fill-rule="nonzero" fill="rgb(100%, 100%, 100%)" fill-opacity="1" d="M 1031.160156 604.351562 C 1031.160156 604.351562 1091.589844 689.910156 1054.691406 750.339844 C 1054.691406 750.339844 1075.539062 698.46875 1031.160156 604.351562 Z M 1031.160156 604.351562 "/>
<path fill-rule="nonzero" fill="rgb(100%, 100%, 100%)" fill-opacity="1" d="M 1299.308594 609.96875 C 1302.941406 635.808594 1300.5 691.78125 1300.328125 709.191406 C 1300.148438 732.199219 1295.910156 732.859375 1295.910156 732.859375 C 1295.910156 732.859375 1299.378906 635.019531 1299.320312 609.96875 Z M 1299.308594 609.96875 "/>
<path fill-rule="nonzero" fill="rgb(100%, 100%, 100%)" fill-opacity="1" d="M 1024.78125 773.320312 L 1025.328125 794.199219 C 1025.558594 794.109375 1025.789062 794.019531 1026 793.929688 C 1025.820312 791.691406 1024.78125 773.308594 1024.78125 773.308594 Z M 1032.601562 1076.710938 L 1034.378906 1145 C 1034.378906 1145 1043.988281 1137.488281 1045.058594 1133.210938 C 1045.289062 1132.171875 1044.191406 1109.179688 1042.429688 1076.710938 Z M 1032.601562 1076.710938 "/>
<path fill-rule="nonzero" fill="rgb(100%, 100%, 100%)" fill-opacity="1" d="M 1254.71875 774.390625 L 1255.589844 807.421875 C 1255.949219 807.609375 1256.339844 807.789062 1256.710938 807.96875 C 1256.339844 802.25 1254.71875 774.390625 1254.71875 774.390625 Z M 1262.519531 1076.710938 L 1264.320312 1146.070312 C 1264.320312 1146.070312 1273.941406 1138.558594 1275.011719 1134.289062 C 1275.238281 1133.21875 1274.140625 1110.199219 1272.328125 1076.710938 Z M 1262.519531 1076.710938 "/>
<path fill-rule="nonzero" fill="rgb(47.068787%, 26.660156%, 12.939453%)" fill-opacity="1" d="M 547.777344 1641.207031 L 517.25 1533.851562 C 533.027344 1524.246094 542.289062 1507.097656 542.289062 1484.800781 L 542.289062 1458.390625 C 542.289062 1423.75 519.992188 1401.113281 485.351562 1401.113281 L 428.414062 1401.113281 L 428.414062 1641.207031 L 464.769531 1641.207031 L 464.769531 1542.082031 L 483.636719 1542.082031 L 510.046875 1641.207031 Z M 464.769531 1435.410156 L 483.636719 1435.410156 C 497.699219 1435.410156 505.929688 1443.644531 505.929688 1457.707031 L 505.929688 1485.488281 C 505.929688 1499.550781 497.699219 1507.78125 483.636719 1507.78125 L 464.769531 1507.78125 Z M 464.769531 1435.410156 "/>
<path fill-rule="nonzero" fill="rgb(47.068787%, 26.660156%, 12.939453%)" fill-opacity="1" d="M 577.804688 1641.207031 L 681.042969 1641.207031 L 681.042969 1606.910156 L 614.160156 1606.910156 L 614.160156 1536.59375 L 667.324219 1536.59375 L 667.324219 1502.296875 L 614.160156 1502.296875 L 614.160156 1435.410156 L 681.042969 1435.410156 L 681.042969 1401.113281 L 577.804688 1401.113281 Z M 577.804688 1641.207031 "/>
<path fill-rule="nonzero" fill="rgb(47.068787%, 26.660156%, 12.939453%)" fill-opacity="1" d="M 762.203125 1644.636719 C 796.847656 1644.636719 820.855469 1619.941406 820.855469 1585.644531 C 820.855469 1559.230469 809.539062 1541.738281 774.550781 1506.753906 C 748.828125 1481.03125 741.28125 1470.054688 741.28125 1454.960938 C 741.28125 1439.871094 748.484375 1431.980469 761.175781 1431.980469 C 773.867188 1431.980469 781.070312 1441.585938 781.070312 1460.105469 L 781.070312 1466.96875 L 816.054688 1463.195312 L 816.054688 1457.019531 C 816.054688 1421.007812 795.476562 1397.683594 760.832031 1397.683594 C 726.191406 1397.683594 705.609375 1421.007812 705.609375 1456.675781 C 705.609375 1483.089844 715.902344 1501.609375 751.914062 1535.566406 C 779.011719 1561.289062 785.183594 1572.265625 785.183594 1587.359375 C 785.183594 1601.421875 776.265625 1610.339844 761.863281 1610.339844 C 747.457031 1610.339844 738.539062 1599.707031 738.539062 1582.210938 L 738.539062 1573.296875 L 703.554688 1577.066406 L 703.554688 1585.644531 C 703.554688 1619.941406 727.5625 1644.636719 762.203125 1644.636719 Z M 762.203125 1644.636719 "/>
<path fill-rule="nonzero" fill="rgb(47.068787%, 26.660156%, 12.939453%)" fill-opacity="1" d="M 838.792969 1435.410156 L 878.582031 1435.410156 L 878.582031 1641.207031 L 914.9375 1641.207031 L 914.9375 1435.410156 L 954.726562 1435.410156 L 954.726562 1401.113281 L 838.792969 1401.113281 Z M 838.792969 1435.410156 "/>
<path fill-rule="nonzero" fill="rgb(47.068787%, 26.660156%, 12.939453%)" fill-opacity="1" d="M 1047.929688 1641.207031 L 1084.980469 1641.207031 L 1045.191406 1401.113281 L 996.484375 1401.113281 L 956.699219 1641.207031 L 993.054688 1641.207031 L 1000.941406 1588.042969 L 1040.050781 1588.042969 Z M 1005.75 1553.058594 L 1020.5 1452.5625 L 1035.238281 1553.058594 Z M 1005.75 1553.058594 "/>
<path fill-rule="nonzero" fill="rgb(47.068787%, 26.660156%, 12.939453%)" fill-opacity="1" d="M 1166.941406 1644.636719 C 1200.210938 1644.636719 1222.851562 1622 1222.851562 1588.386719 L 1222.851562 1401.113281 L 1187.179688 1401.113281 L 1187.179688 1588.386719 C 1187.179688 1602.449219 1178.601562 1610.339844 1166.941406 1610.339844 C 1155.28125 1610.339844 1146.699219 1602.449219 1146.699219 1588.386719 L 1146.699219 1401.113281 L 1110.351562 1401.113281 L 1110.351562 1588.386719 C 1110.351562 1622 1133.671875 1644.636719 1166.941406 1644.636719 Z M 1166.941406 1644.636719 "/>
<path fill-rule="nonzero" fill="rgb(47.068787%, 26.660156%, 12.939453%)" fill-opacity="1" d="M 1380.46875 1641.207031 L 1349.941406 1533.851562 C 1365.71875 1524.246094 1374.980469 1507.097656 1374.980469 1484.800781 L 1374.980469 1458.390625 C 1374.980469 1423.75 1352.691406 1401.113281 1318.050781 1401.113281 L 1261.109375 1401.113281 L 1261.109375 1641.207031 L 1297.460938 1641.207031 L 1297.460938 1542.082031 L 1316.328125 1542.082031 L 1342.738281 1641.207031 Z M 1297.460938 1435.410156 L 1316.328125 1435.410156 C 1330.390625 1435.410156 1338.628906 1443.644531 1338.628906 1457.707031 L 1338.628906 1485.488281 C 1338.628906 1499.550781 1330.390625 1507.78125 1316.328125 1507.78125 L 1297.460938 1507.78125 Z M 1297.460938 1435.410156 "/>
<path fill-rule="nonzero" fill="rgb(47.068787%, 26.660156%, 12.939453%)" fill-opacity="1" d="M 1490.070312 1641.207031 L 1527.121094 1641.207031 L 1487.328125 1401.113281 L 1438.628906 1401.113281 L 1398.839844 1641.207031 L 1435.191406 1641.207031 L 1443.078125 1588.042969 L 1482.179688 1588.042969 Z M 1447.890625 1553.058594 L 1462.628906 1452.5625 L 1477.378906 1553.058594 Z M 1447.890625 1553.058594 "/>
<path fill-rule="nonzero" fill="rgb(47.068787%, 26.660156%, 12.939453%)" fill-opacity="1" d="M 1555.199219 1641.207031 L 1590.871094 1641.207031 L 1590.871094 1487.546875 L 1638.890625 1641.207031 L 1677.308594 1641.207031 L 1677.308594 1401.113281 L 1641.628906 1401.113281 L 1641.628906 1562.320312 L 1595.328125 1401.113281 L 1555.199219 1401.113281 Z M 1555.199219 1641.207031 "/>
<path fill-rule="nonzero" fill="rgb(47.068787%, 26.660156%, 12.939453%)" fill-opacity="1" d="M 1705.660156 1435.410156 L 1745.441406 1435.410156 L 1745.441406 1641.207031 L 1781.800781 1641.207031 L 1781.800781 1435.410156 L 1821.589844 1435.410156 L 1821.589844 1401.113281 L 1705.660156 1401.113281 Z M 1705.660156 1435.410156 "/>
<path fill-rule="nonzero" fill="rgb(47.068787%, 26.660156%, 12.939453%)" fill-opacity="1" d="M 574.074219 1706.1875 L 567.222656 1727.960938 L 560.539062 1706.1875 L 551.324219 1706.1875 L 562.902344 1739.378906 L 562.902344 1763.273438 L 571.546875 1763.273438 L 571.546875 1739.378906 L 583.128906 1706.1875 Z M 574.074219 1706.1875 "/>
<path fill-rule="nonzero" fill="rgb(47.068787%, 26.660156%, 12.939453%)" fill-opacity="1" d="M 643.472656 1764.085938 C 651.789062 1764.085938 657.335938 1758.542969 657.335938 1750.304688 L 657.335938 1719.152344 C 657.335938 1710.917969 651.789062 1705.371094 643.472656 1705.371094 C 635.152344 1705.371094 629.609375 1710.917969 629.609375 1719.152344 L 629.609375 1750.304688 C 629.609375 1758.542969 635.152344 1764.085938 643.472656 1764.085938 Z M 643.472656 1755.933594 C 640.292969 1755.933594 638.253906 1753.894531 638.253906 1750.304688 L 638.253906 1719.152344 C 638.253906 1715.5625 640.289062 1713.527344 643.472656 1713.527344 C 646.652344 1713.527344 648.691406 1715.5625 648.691406 1719.152344 L 648.691406 1750.304688 C 648.691406 1753.894531 646.652344 1755.933594 643.472656 1755.933594 Z M 643.472656 1755.933594 "/>
<path fill-rule="nonzero" fill="rgb(47.068787%, 26.660156%, 12.939453%)" fill-opacity="1" d="M 721.464844 1764.085938 C 729.375 1764.085938 734.757812 1758.703125 734.757812 1750.710938 L 734.757812 1706.1875 L 726.277344 1706.1875 L 726.277344 1750.710938 C 726.277344 1754.058594 724.238281 1755.933594 721.464844 1755.933594 C 718.691406 1755.933594 716.652344 1754.054688 716.652344 1750.710938 L 716.652344 1706.1875 L 708.007812 1706.1875 L 708.007812 1750.710938 C 708.007812 1758.703125 713.554688 1764.085938 721.464844 1764.085938 Z M 721.464844 1764.085938 "/>
<path fill-rule="nonzero" fill="rgb(47.068787%, 26.660156%, 12.939453%)" fill-opacity="1" d="M 814.546875 1763.273438 L 807.289062 1737.746094 C 811.039062 1735.460938 813.242188 1731.386719 813.242188 1726.085938 L 813.242188 1719.804688 C 813.242188 1711.570312 807.941406 1706.1875 799.707031 1706.1875 L 786.167969 1706.1875 L 786.167969 1763.273438 L 794.8125 1763.273438 L 794.8125 1739.703125 L 799.296875 1739.703125 L 805.574219 1763.273438 Z M 794.8125 1714.339844 L 799.296875 1714.339844 C 802.636719 1714.339844 804.597656 1716.296875 804.597656 1719.640625 L 804.597656 1726.246094 C 804.597656 1729.589844 802.640625 1731.546875 799.296875 1731.546875 L 794.8125 1731.546875 Z M 794.8125 1714.339844 "/>
<path fill-rule="nonzero" fill="rgb(47.068787%, 26.660156%, 12.939453%)" fill-opacity="1" d="M 934.550781 1764.085938 C 942.785156 1764.085938 948.496094 1758.214844 948.496094 1750.058594 C 948.496094 1743.78125 945.804688 1739.621094 937.484375 1731.304688 C 931.367188 1725.1875 929.574219 1722.578125 929.574219 1718.988281 C 929.574219 1715.402344 931.285156 1713.527344 934.304688 1713.527344 C 937.320312 1713.527344 939.035156 1715.8125 939.035156 1720.214844 L 939.035156 1721.84375 L 947.351562 1720.949219 L 947.351562 1719.480469 C 947.351562 1710.914062 942.460938 1705.371094 934.222656 1705.371094 C 925.984375 1705.371094 921.09375 1710.914062 921.09375 1719.398438 C 921.09375 1725.675781 923.539062 1730.082031 932.101562 1738.152344 C 938.542969 1744.269531 940.011719 1746.878906 940.011719 1750.46875 C 940.011719 1753.8125 937.890625 1755.929688 934.46875 1755.929688 C 931.042969 1755.929688 928.921875 1753.402344 928.921875 1749.246094 L 928.921875 1747.125 L 920.605469 1748.019531 L 920.605469 1750.058594 C 920.605469 1758.210938 926.3125 1764.082031 934.550781 1764.082031 Z M 934.550781 1764.085938 "/>
<path fill-rule="nonzero" fill="rgb(47.068787%, 26.660156%, 12.939453%)" fill-opacity="1" d="M 998.164062 1763.273438 L 1022.21875 1763.273438 L 1022.21875 1755.117188 L 1006.808594 1755.117188 L 1006.808594 1706.1875 L 998.164062 1706.1875 Z M 998.164062 1763.273438 "/>
<path fill-rule="nonzero" fill="rgb(47.068787%, 26.660156%, 12.939453%)" fill-opacity="1" d="M 1084.351562 1764.085938 C 1092.671875 1764.085938 1098.210938 1758.542969 1098.210938 1750.304688 L 1098.210938 1719.152344 C 1098.210938 1710.917969 1092.671875 1705.371094 1084.351562 1705.371094 C 1076.03125 1705.371094 1070.480469 1710.917969 1070.480469 1719.152344 L 1070.480469 1750.304688 C 1070.480469 1758.542969 1076.03125 1764.085938 1084.351562 1764.085938 Z M 1084.351562 1755.933594 C 1081.171875 1755.933594 1079.128906 1753.894531 1079.128906 1750.304688 L 1079.128906 1719.152344 C 1079.128906 1715.5625 1081.171875 1713.527344 1084.351562 1713.527344 C 1087.53125 1713.527344 1089.570312 1715.5625 1089.570312 1719.152344 L 1089.570312 1750.304688 C 1089.570312 1753.894531 1087.53125 1755.933594 1084.351562 1755.933594 Z M 1084.351562 1755.933594 "/>
<path fill-rule="nonzero" fill="rgb(47.068787%, 26.660156%, 12.939453%)" fill-opacity="1" d="M 1176.199219 1723.964844 L 1176.199219 1719.152344 C 1176.199219 1710.917969 1170.660156 1705.371094 1162.339844 1705.371094 C 1154.019531 1705.371094 1148.480469 1710.917969 1148.480469 1719.152344 L 1148.480469 1750.304688 C 1148.480469 1758.542969 1154.019531 1764.085938 1162.339844 1764.085938 C 1170.660156 1764.085938 1176.199219 1758.542969 1176.199219 1750.304688 L 1176.199219 1732.039062 L 1162.339844 1732.039062 L 1162.339844 1740.191406 L 1167.558594 1740.191406 L 1167.558594 1750.304688 C 1167.558594 1753.894531 1165.519531 1755.933594 1162.339844 1755.933594 C 1159.160156 1755.933594 1157.121094 1753.894531 1157.121094 1750.304688 L 1157.121094 1719.152344 C 1157.121094 1715.5625 1159.160156 1713.527344 1162.339844 1713.527344 C 1165.519531 1713.527344 1167.558594 1715.5625 1167.558594 1719.152344 L 1167.558594 1723.964844 Z M 1176.199219 1723.964844 "/>
<path fill-rule="nonzero" fill="rgb(47.068787%, 26.660156%, 12.939453%)" fill-opacity="1" d="M 1245.640625 1763.273438 L 1254.449219 1763.273438 L 1244.988281 1706.1875 L 1233.410156 1706.1875 L 1223.949219 1763.273438 L 1232.601562 1763.273438 L 1234.46875 1750.632812 L 1243.769531 1750.632812 Z M 1235.609375 1742.3125 L 1239.121094 1718.417969 L 1242.628906 1742.3125 Z M 1235.609375 1742.3125 "/>
<path fill-rule="nonzero" fill="rgb(47.068787%, 26.660156%, 12.939453%)" fill-opacity="1" d="M 1303.441406 1763.273438 L 1311.929688 1763.273438 L 1311.929688 1726.738281 L 1323.339844 1763.273438 L 1332.480469 1763.273438 L 1332.480469 1706.1875 L 1323.988281 1706.1875 L 1323.988281 1744.515625 L 1312.980469 1706.1875 L 1303.441406 1706.1875 Z M 1303.441406 1763.273438 "/>
<path fill-rule="nonzero" fill="rgb(47.068787%, 26.660156%, 12.939453%)" fill-opacity="1" d="M 1451.511719 1763.273438 L 1451.511719 1738.398438 L 1461.78125 1738.398438 L 1461.78125 1763.273438 L 1470.429688 1763.273438 L 1470.429688 1706.1875 L 1461.78125 1706.1875 L 1461.78125 1730.242188 L 1451.511719 1730.242188 L 1451.511719 1706.1875 L 1442.859375 1706.1875 L 1442.859375 1763.273438 Z M 1451.511719 1763.273438 "/>
<path fill-rule="nonzero" fill="rgb(47.068787%, 26.660156%, 12.939453%)" fill-opacity="1" d="M 1522.128906 1763.273438 L 1546.679688 1763.273438 L 1546.679688 1755.117188 L 1530.769531 1755.117188 L 1530.769531 1738.398438 L 1543.410156 1738.398438 L 1543.410156 1730.242188 L 1530.769531 1730.242188 L 1530.769531 1714.339844 L 1546.679688 1714.339844 L 1546.679688 1706.1875 L 1522.128906 1706.1875 Z M 1522.128906 1763.273438 "/>
<path fill-rule="nonzero" fill="rgb(47.068787%, 26.660156%, 12.939453%)" fill-opacity="1" d="M 1624.679688 1763.273438 L 1617.421875 1737.746094 C 1621.171875 1735.460938 1623.371094 1731.386719 1623.371094 1726.085938 L 1623.371094 1719.804688 C 1623.371094 1711.570312 1618.070312 1706.1875 1609.839844 1706.1875 L 1596.300781 1706.1875 L 1596.300781 1763.273438 L 1604.941406 1763.273438 L 1604.941406 1739.703125 L 1609.429688 1739.703125 L 1615.710938 1763.273438 Z M 1604.941406 1714.339844 L 1609.429688 1714.339844 C 1612.769531 1714.339844 1614.730469 1716.296875 1614.730469 1719.640625 L 1614.730469 1726.246094 C 1614.730469 1729.589844 1612.769531 1731.546875 1609.429688 1731.546875 L 1604.941406 1731.546875 Z M 1604.941406 1714.339844 "/>
<path fill-rule="nonzero" fill="rgb(47.068787%, 26.660156%, 12.939453%)" fill-opacity="1" d="M 1674.128906 1763.273438 L 1698.679688 1763.273438 L 1698.679688 1755.117188 L 1682.78125 1755.117188 L 1682.78125 1738.398438 L 1695.410156 1738.398438 L 1695.410156 1730.242188 L 1682.78125 1730.242188 L 1682.78125 1714.339844 L 1698.679688 1714.339844 L 1698.679688 1706.1875 L 1674.128906 1706.1875 Z M 1674.128906 1763.273438 "/>
</svg>
